<?xml version="1.0" encoding="UTF-8" standalone="no"?>
<!-- Created with Inkscape (http://www.inkscape.org/) -->

<svg
   xmlns:dc="http://purl.org/dc/elements/1.1/"
   xmlns:cc="http://creativecommons.org/ns#"
   xmlns:rdf="http://www.w3.org/1999/02/22-rdf-syntax-ns#"
   xmlns:svg="http://www.w3.org/2000/svg"
   xmlns="http://www.w3.org/2000/svg"
   xmlns:sodipodi="http://sodipodi.sourceforge.net/DTD/sodipodi-0.dtd"
   xmlns:inkscape="http://www.inkscape.org/namespaces/inkscape"
   width="32"
   height="32"
   viewBox="0 0 8.4666664 8.4666672"
   version="1.1"
   id="svg8"
   inkscape:version="0.92.3 (2405546, 2018-03-11)"
   sodipodi:docname="activity-bar-icon.svg">
  <defs
     id="defs2" />
  <sodipodi:namedview
     id="base"
     pagecolor="#ffffff"
     bordercolor="#666666"
     borderopacity="1.0"
     inkscape:pageopacity="0.0"
     inkscape:pageshadow="2"
     inkscape:zoom="5.6"
     inkscape:cx="17.327772"
     inkscape:cy="30.595098"
     inkscape:document-units="mm"
     inkscape:current-layer="layer1"
     showgrid="false"
     units="px"
     borderlayer="true"
     inkscape:snap-global="false"
     inkscape:window-width="1151"
     inkscape:window-height="889"
     inkscape:window-x="609"
     inkscape:window-y="83"
     inkscape:window-maximized="0">
    <inkscape:grid
       type="xygrid"
       id="grid5231" />
  </sodipodi:namedview>
  <metadata
     id="metadata5">
    <rdf:RDF>
      <cc:Work
         rdf:about="">
        <dc:format>image/svg+xml</dc:format>
        <dc:type
           rdf:resource="http://purl.org/dc/dcmitype/StillImage" />
        <dc:title></dc:title>
      </cc:Work>
    </rdf:RDF>
  </metadata>
  <g
     inkscape:label="Layer 1"
     inkscape:groupmode="layer"
     id="layer1"
     transform="translate(0,-288.53332)"
     style="display:none">
    <rect
       style="fill:#7064a0;fill-opacity:1;stroke:none;stroke-width:0.08271202;stroke-linecap:round;stroke-miterlimit:4;stroke-dasharray:none;stroke-opacity:1"
       id="rect4544"
       width="12.161366"
       height="11.979131"
       x="-1.7787672"
       y="286.81882" />
  </g>
  <g
     inkscape:groupmode="layer"
     id="layer2"
     inkscape:label="Layer 2"
     style="display:inline">
    <path
       style="fill:#f9ffff;fill-opacity:0.49803922;stroke:none;stroke-width:0.02645833;stroke-linecap:butt;stroke-linejoin:miter;stroke-miterlimit:4;stroke-dasharray:none;stroke-opacity:1"
       d="M 0.66145833,8.0886903 C 0.44097205,8.0414435 0.33072934,7.852455 0.33072916,7.521726 2.4109718,2.1570404 5.8986486,4.0550933 7.5122767,1.5449776 5.6255945,3.3286145 4.5319347,2.2566509 2.4095982,3.8482701 3.2674594,2.7790809 3.6180101,2.4596772 4.4412202,1.9702009 2.3112725,2.9487049 2.0953179,3.8611664 1.0394346,5.6554686 0.91361791,4.9377084 0.97591261,4.2923841 1.3583519,3.3876116 1.7407913,2.482839 2.2270816,2.0840779 3.1773623,1.7103422 4.127643,1.3366065 5.1612038,1.3691358 6.1775484,1.2260603 7.193893,1.0829847 7.6831543,0.88856053 8.3154762,0.41104907 7.5211071,2.3765872 7.4544516,3.0853789 6.4846538,4.7223399 4.9925951,6.8055388 3.6026758,5.7238167 1.6654576,5.9035156 1.1096475,6.0887443 0.92448817,6.723269 0.68508183,7.1673735 0.61699429,7.6721489 0.620983,7.807156 0.66145833,8.0886903 Z"
       id="path5234"
       inkscape:connector-curvature="0"
       sodipodi:nodetypes="cccccczzzccccc" />
  </g>
</svg>
